<mxfile host="app.diagrams.net" modified="2023-04-22T12:42:32.430Z" agent="Mozilla/5.0 (X11; Linux x86_64) AppleWebKit/537.36 (KHTML, like Gecko) Chrome/112.0.0.0 Safari/537.36" version="21.2.1" etag="lwWiLliXxfbHj093N1Gh" type="github">
  <diagram name="PÃ¡gina-1" id="1R_9TIf3jdxEn1crAAg6">
    <mxGraphModel>
      <root>
        <mxCell id="0" />
        <mxCell id="1" parent="0" />
      </root>
    </mxGraphModel>
  </diagram>
</mxfile>
